<mxfile host="app.diagrams.net" agent="Mozilla/5.0 (Windows NT 10.0; Win64; x64) AppleWebKit/537.36 (KHTML, like Gecko) Chrome/130.0.0.0 Safari/537.36" version="24.7.17">
  <diagram name="Page-1" id="JNRxnBV9_3tvGunqLC9R">
    <mxGraphModel dx="2204" dy="566" grid="1" gridSize="10" guides="1" tooltips="1" connect="1" arrows="1" fold="1" page="1" pageScale="1" pageWidth="850" pageHeight="1100" background="#FFFFFF" math="0" shadow="0">
      <root>
        <mxCell id="0" />
        <mxCell id="1" parent="0" />
        <mxCell id="gmwnegnUR_CNORKRYM6Y-1" value="&lt;div&gt;&lt;span style=&quot;background-color: initial;&quot;&gt;rr:template&lt;br&gt;&quot;&lt;/span&gt;{RICO_VERSION}&lt;span style=&quot;background-color: initial;&quot;&gt;/&lt;/span&gt;{HEADING}/Agent/1&quot;&lt;/div&gt;" style="swimlane;fontStyle=0;childLayout=stackLayout;horizontal=1;startSize=26;fillColor=none;horizontalStack=0;resizeParent=1;resizeParentMax=0;resizeLast=0;collapsible=1;marginBottom=0;whiteSpace=wrap;html=1;strokeColor=#FF0000;" parent="1" vertex="1">
          <mxGeometry x="250" y="454" width="230" height="52" as="geometry" />
        </mxCell>
        <mxCell id="gmwnegnUR_CNORKRYM6Y-2" value="rico:Agent" style="text;strokeColor=none;fillColor=none;align=center;verticalAlign=top;spacingLeft=4;spacingRight=4;overflow=hidden;rotatable=0;points=[[0,0.5],[1,0.5]];portConstraint=eastwest;whiteSpace=wrap;html=1;" parent="gmwnegnUR_CNORKRYM6Y-1" vertex="1">
          <mxGeometry y="26" width="230" height="26" as="geometry" />
        </mxCell>
        <mxCell id="_-RjwaxhbeTWfwVWe4ke-16" value="" style="endArrow=classic;html=1;rounded=0;exitX=0.53;exitY=1.013;exitDx=0;exitDy=0;exitPerimeter=0;entryX=0.356;entryY=0;entryDx=0;entryDy=0;entryPerimeter=0;" parent="1" source="gmwnegnUR_CNORKRYM6Y-2" target="_-RjwaxhbeTWfwVWe4ke-18" edge="1">
          <mxGeometry relative="1" as="geometry">
            <mxPoint x="250" y="540" as="sourcePoint" />
            <mxPoint x="500" y="690.6666259765625" as="targetPoint" />
          </mxGeometry>
        </mxCell>
        <mxCell id="_-RjwaxhbeTWfwVWe4ke-17" value="rico:hasOrHadController" style="edgeLabel;resizable=0;html=1;;align=center;verticalAlign=middle;" parent="_-RjwaxhbeTWfwVWe4ke-16" connectable="0" vertex="1">
          <mxGeometry relative="1" as="geometry">
            <mxPoint x="-19" y="-3" as="offset" />
          </mxGeometry>
        </mxCell>
        <mxCell id="_-RjwaxhbeTWfwVWe4ke-18" value="rr:template&lt;div&gt;&quot;{RICO_VERSION}/{CONTAG_1}/CorporateBody/1&quot;&lt;/div&gt;" style="swimlane;fontStyle=0;childLayout=stackLayout;horizontal=1;startSize=26;fillColor=none;horizontalStack=0;resizeParent=1;resizeParentMax=0;resizeLast=0;collapsible=1;marginBottom=0;whiteSpace=wrap;html=1;strokeColor=#FF0000;" parent="1" vertex="1">
          <mxGeometry x="452.5" y="600" width="335" height="52" as="geometry" />
        </mxCell>
        <mxCell id="_-RjwaxhbeTWfwVWe4ke-19" value="rico:CorporateBody" style="text;strokeColor=none;fillColor=none;align=center;verticalAlign=top;spacingLeft=4;spacingRight=4;overflow=hidden;rotatable=0;points=[[0,0.5],[1,0.5]];portConstraint=eastwest;whiteSpace=wrap;html=1;" parent="_-RjwaxhbeTWfwVWe4ke-18" vertex="1">
          <mxGeometry y="26" width="335" height="26" as="geometry" />
        </mxCell>
        <mxCell id="pk83CXQ_J8W3k7jnCZb_-17" value="rr:template&lt;div&gt;&quot;{RICO_VERSION}/{HEADING}/AgentControlRelation/1&quot;&lt;/div&gt;" style="swimlane;fontStyle=0;childLayout=stackLayout;horizontal=1;startSize=26;fillColor=none;horizontalStack=0;resizeParent=1;resizeParentMax=0;resizeLast=0;collapsible=1;marginBottom=0;whiteSpace=wrap;html=1;strokeColor=#FF0000;" parent="1" vertex="1">
          <mxGeometry x="-110" y="640" width="330" height="52" as="geometry" />
        </mxCell>
        <mxCell id="pk83CXQ_J8W3k7jnCZb_-18" value="rico:AgentControlRelation" style="text;strokeColor=none;fillColor=none;align=center;verticalAlign=top;spacingLeft=4;spacingRight=4;overflow=hidden;rotatable=0;points=[[0,0.5],[1,0.5]];portConstraint=eastwest;whiteSpace=wrap;html=1;" parent="pk83CXQ_J8W3k7jnCZb_-17" vertex="1">
          <mxGeometry y="26" width="330" height="26" as="geometry" />
        </mxCell>
        <mxCell id="pk83CXQ_J8W3k7jnCZb_-21" value="" style="endArrow=classic;html=1;rounded=0;entryX=1;entryY=0.5;entryDx=0;entryDy=0;exitX=0;exitY=0.5;exitDx=0;exitDy=0;" parent="1" source="_-RjwaxhbeTWfwVWe4ke-19" target="pk83CXQ_J8W3k7jnCZb_-17" edge="1">
          <mxGeometry relative="1" as="geometry">
            <mxPoint x="670" y="1050" as="sourcePoint" />
            <mxPoint x="560" y="910" as="targetPoint" />
          </mxGeometry>
        </mxCell>
        <mxCell id="pk83CXQ_J8W3k7jnCZb_-22" value="rico:thingIsSourceOfRelation" style="edgeLabel;resizable=0;html=1;;align=center;verticalAlign=middle;" parent="pk83CXQ_J8W3k7jnCZb_-21" connectable="0" vertex="1">
          <mxGeometry relative="1" as="geometry">
            <mxPoint x="3" y="3" as="offset" />
          </mxGeometry>
        </mxCell>
        <mxCell id="pk83CXQ_J8W3k7jnCZb_-23" value="" style="endArrow=classic;html=1;rounded=0;entryX=0.436;entryY=0.99;entryDx=0;entryDy=0;entryPerimeter=0;exitX=0.5;exitY=0;exitDx=0;exitDy=0;" parent="1" source="pk83CXQ_J8W3k7jnCZb_-17" target="gmwnegnUR_CNORKRYM6Y-2" edge="1">
          <mxGeometry relative="1" as="geometry">
            <mxPoint x="500" y="712" as="sourcePoint" />
            <mxPoint x="399.5" y="800" as="targetPoint" />
          </mxGeometry>
        </mxCell>
        <mxCell id="pk83CXQ_J8W3k7jnCZb_-24" value="rico:relationHasTarget" style="edgeLabel;resizable=0;html=1;;align=center;verticalAlign=middle;" parent="pk83CXQ_J8W3k7jnCZb_-23" connectable="0" vertex="1">
          <mxGeometry relative="1" as="geometry" />
        </mxCell>
        <mxCell id="pk83CXQ_J8W3k7jnCZb_-25" value="" style="endArrow=classic;html=1;rounded=0;exitX=0.575;exitY=1.043;exitDx=0;exitDy=0;exitPerimeter=0;entryX=0.25;entryY=0;entryDx=0;entryDy=0;" parent="1" source="pk83CXQ_J8W3k7jnCZb_-18" target="pk83CXQ_J8W3k7jnCZb_-27" edge="1">
          <mxGeometry relative="1" as="geometry">
            <mxPoint x="610" y="892" as="sourcePoint" />
            <mxPoint x="580" y="1030" as="targetPoint" />
          </mxGeometry>
        </mxCell>
        <mxCell id="pk83CXQ_J8W3k7jnCZb_-26" value="rico:hasBeginningDate" style="edgeLabel;resizable=0;html=1;;align=center;verticalAlign=middle;" parent="pk83CXQ_J8W3k7jnCZb_-25" connectable="0" vertex="1">
          <mxGeometry relative="1" as="geometry">
            <mxPoint x="2" y="19" as="offset" />
          </mxGeometry>
        </mxCell>
        <mxCell id="pk83CXQ_J8W3k7jnCZb_-27" value="&lt;div&gt;rr:template&lt;/div&gt;&lt;div&gt;&quot;KB/Date/{DATECONT_1_BEGINNING}&quot;&lt;br&gt;&lt;/div&gt;" style="swimlane;fontStyle=0;childLayout=stackLayout;horizontal=1;startSize=26;fillColor=none;horizontalStack=0;resizeParent=1;resizeParentMax=0;resizeLast=0;collapsible=1;marginBottom=0;whiteSpace=wrap;html=1;strokeColor=#FF0000;" parent="1" vertex="1">
          <mxGeometry x="120" y="770" width="245" height="52" as="geometry" />
        </mxCell>
        <mxCell id="pk83CXQ_J8W3k7jnCZb_-28" value="rico:Date" style="text;strokeColor=none;fillColor=none;align=center;verticalAlign=top;spacingLeft=4;spacingRight=4;overflow=hidden;rotatable=0;points=[[0,0.5],[1,0.5]];portConstraint=eastwest;whiteSpace=wrap;html=1;" parent="pk83CXQ_J8W3k7jnCZb_-27" vertex="1">
          <mxGeometry y="26" width="245" height="26" as="geometry" />
        </mxCell>
        <mxCell id="pk83CXQ_J8W3k7jnCZb_-29" value="" style="endArrow=classic;html=1;rounded=0;entryX=0.5;entryY=0;entryDx=0;entryDy=0;exitX=0.281;exitY=1.029;exitDx=0;exitDy=0;exitPerimeter=0;" parent="1" source="pk83CXQ_J8W3k7jnCZb_-18" target="pk83CXQ_J8W3k7jnCZb_-31" edge="1">
          <mxGeometry relative="1" as="geometry">
            <mxPoint x="540" y="900" as="sourcePoint" />
            <mxPoint x="540" y="1150" as="targetPoint" />
          </mxGeometry>
        </mxCell>
        <mxCell id="pk83CXQ_J8W3k7jnCZb_-30" value="rico:hasEndDate" style="edgeLabel;resizable=0;html=1;;align=center;verticalAlign=middle;" parent="pk83CXQ_J8W3k7jnCZb_-29" connectable="0" vertex="1">
          <mxGeometry relative="1" as="geometry">
            <mxPoint y="18" as="offset" />
          </mxGeometry>
        </mxCell>
        <mxCell id="pk83CXQ_J8W3k7jnCZb_-31" value="rr:template&lt;div&gt;&quot;KB/Date/{DATECONT_1_END}&quot;&lt;/div&gt;" style="swimlane;fontStyle=0;childLayout=stackLayout;horizontal=1;startSize=26;fillColor=none;horizontalStack=0;resizeParent=1;resizeParentMax=0;resizeLast=0;collapsible=1;marginBottom=0;whiteSpace=wrap;html=1;strokeColor=#FF0000;" parent="1" vertex="1">
          <mxGeometry x="-195" y="770" width="215" height="52" as="geometry" />
        </mxCell>
        <mxCell id="pk83CXQ_J8W3k7jnCZb_-32" value="rico:Date" style="text;strokeColor=none;fillColor=none;align=center;verticalAlign=top;spacingLeft=4;spacingRight=4;overflow=hidden;rotatable=0;points=[[0,0.5],[1,0.5]];portConstraint=eastwest;whiteSpace=wrap;html=1;" parent="pk83CXQ_J8W3k7jnCZb_-31" vertex="1">
          <mxGeometry y="26" width="215" height="26" as="geometry" />
        </mxCell>
        <mxCell id="ZsFsWTWNznt8_uSDE5Ch-1" value="" style="endArrow=classic;html=1;rounded=0;exitX=0;exitY=0.25;exitDx=0;exitDy=0;entryX=0.997;entryY=0.011;entryDx=0;entryDy=0;entryPerimeter=0;" edge="1" parent="1" target="ZsFsWTWNznt8_uSDE5Ch-4" source="gmwnegnUR_CNORKRYM6Y-1">
          <mxGeometry relative="1" as="geometry">
            <mxPoint x="240" y="370" as="sourcePoint" />
            <mxPoint x="-20" y="300" as="targetPoint" />
          </mxGeometry>
        </mxCell>
        <mxCell id="ZsFsWTWNznt8_uSDE5Ch-2" value="rico:hasOrHadAgentName" style="edgeLabel;resizable=0;html=1;;align=center;verticalAlign=middle;" connectable="0" vertex="1" parent="ZsFsWTWNznt8_uSDE5Ch-1">
          <mxGeometry relative="1" as="geometry" />
        </mxCell>
        <mxCell id="ZsFsWTWNznt8_uSDE5Ch-3" value="&lt;div&gt;&lt;span style=&quot;background-color: initial;&quot;&gt;rr:template&lt;br&gt;&quot;&lt;/span&gt;{RICO_VERSION}&lt;span style=&quot;background-color: initial;&quot;&gt;/&lt;/span&gt;{HEADING}/AgentName/2&quot;&lt;/div&gt;" style="swimlane;fontStyle=0;childLayout=stackLayout;horizontal=1;startSize=26;fillColor=none;horizontalStack=0;resizeParent=1;resizeParentMax=0;resizeLast=0;collapsible=1;marginBottom=0;whiteSpace=wrap;html=1;" vertex="1" parent="1">
          <mxGeometry x="-210" y="402" width="260" height="52" as="geometry">
            <mxRectangle x="981" y="570" width="50" height="40" as="alternateBounds" />
          </mxGeometry>
        </mxCell>
        <mxCell id="ZsFsWTWNznt8_uSDE5Ch-4" value="rico:AgentName&lt;div&gt;&lt;br&gt;&lt;/div&gt;" style="text;strokeColor=none;fillColor=none;align=center;verticalAlign=top;spacingLeft=4;spacingRight=4;overflow=hidden;rotatable=0;points=[[0,0.5],[1,0.5]];portConstraint=eastwest;whiteSpace=wrap;html=1;" vertex="1" parent="ZsFsWTWNznt8_uSDE5Ch-3">
          <mxGeometry y="26" width="260" height="26" as="geometry" />
        </mxCell>
        <mxCell id="ZsFsWTWNznt8_uSDE5Ch-5" value="" style="endArrow=classic;html=1;rounded=0;exitX=0.25;exitY=0;exitDx=0;exitDy=0;entryX=0.654;entryY=0.996;entryDx=0;entryDy=0;entryPerimeter=0;" edge="1" parent="1" source="ZsFsWTWNznt8_uSDE5Ch-3" target="ZsFsWTWNznt8_uSDE5Ch-7">
          <mxGeometry relative="1" as="geometry">
            <mxPoint x="-336" y="216" as="sourcePoint" />
            <mxPoint x="-355" y="158" as="targetPoint" />
          </mxGeometry>
        </mxCell>
        <mxCell id="ZsFsWTWNznt8_uSDE5Ch-6" value="rico:textualValue" style="edgeLabel;resizable=0;html=1;;align=center;verticalAlign=middle;" connectable="0" vertex="1" parent="ZsFsWTWNznt8_uSDE5Ch-5">
          <mxGeometry relative="1" as="geometry">
            <mxPoint x="-11" y="-3" as="offset" />
          </mxGeometry>
        </mxCell>
        <mxCell id="ZsFsWTWNznt8_uSDE5Ch-7" value="rml:reference &quot;VAR_1&quot;" style="html=1;whiteSpace=wrap;rounded=1;arcSize=50;strokeColor=#FF0000;" vertex="1" parent="1">
          <mxGeometry x="-260" y="260" width="80" height="50" as="geometry" />
        </mxCell>
        <mxCell id="ZsFsWTWNznt8_uSDE5Ch-8" value="" style="endArrow=classic;html=1;rounded=0;entryX=0;entryY=0.5;entryDx=0;entryDy=0;exitX=1;exitY=0.5;exitDx=0;exitDy=0;" edge="1" parent="1" target="ZsFsWTWNznt8_uSDE5Ch-11" source="gmwnegnUR_CNORKRYM6Y-1">
          <mxGeometry relative="1" as="geometry">
            <mxPoint x="639" y="134" as="sourcePoint" />
            <mxPoint x="505" y="338" as="targetPoint" />
          </mxGeometry>
        </mxCell>
        <mxCell id="ZsFsWTWNznt8_uSDE5Ch-9" value="rico:isSuccessorOf" style="edgeLabel;resizable=0;html=1;;align=center;verticalAlign=middle;" connectable="0" vertex="1" parent="ZsFsWTWNznt8_uSDE5Ch-8">
          <mxGeometry relative="1" as="geometry" />
        </mxCell>
        <mxCell id="ZsFsWTWNznt8_uSDE5Ch-10" value="&lt;div&gt;&lt;span style=&quot;background-color: initial;&quot;&gt;rr:template&lt;br&gt;&lt;/span&gt;&lt;span style=&quot;background-color: initial;&quot;&gt;&quot;&lt;/span&gt;{RICO_VERSION}&lt;span style=&quot;background-color: initial;&quot;&gt;/&lt;/span&gt;&lt;span style=&quot;background-color: initial;&quot;&gt;{&lt;/span&gt;PRED_1&lt;span style=&quot;background-color: initial;&quot;&gt;}/CorporateBody/1&quot;&lt;/span&gt;&lt;/div&gt;" style="swimlane;fontStyle=0;childLayout=stackLayout;horizontal=1;startSize=26;fillColor=none;horizontalStack=0;resizeParent=1;resizeParentMax=0;resizeLast=0;collapsible=1;marginBottom=0;whiteSpace=wrap;html=1;strokeColor=#000000;" vertex="1" parent="1">
          <mxGeometry x="660" y="390" width="270" height="52" as="geometry" />
        </mxCell>
        <mxCell id="ZsFsWTWNznt8_uSDE5Ch-11" value="rico:CorporateBody" style="text;strokeColor=none;fillColor=none;align=center;verticalAlign=top;spacingLeft=4;spacingRight=4;overflow=hidden;rotatable=0;points=[[0,0.5],[1,0.5]];portConstraint=eastwest;whiteSpace=wrap;html=1;" vertex="1" parent="ZsFsWTWNznt8_uSDE5Ch-10">
          <mxGeometry y="26" width="270" height="26" as="geometry" />
        </mxCell>
        <mxCell id="ZsFsWTWNznt8_uSDE5Ch-12" value="" style="endArrow=classic;html=1;rounded=0;exitX=0.75;exitY=0;exitDx=0;exitDy=0;entryX=0;entryY=0.5;entryDx=0;entryDy=0;" edge="1" parent="1" target="ZsFsWTWNznt8_uSDE5Ch-15" source="gmwnegnUR_CNORKRYM6Y-1">
          <mxGeometry relative="1" as="geometry">
            <mxPoint x="590" y="130" as="sourcePoint" />
            <mxPoint x="355" y="278" as="targetPoint" />
          </mxGeometry>
        </mxCell>
        <mxCell id="ZsFsWTWNznt8_uSDE5Ch-13" value="rico:hasSuccessor" style="edgeLabel;resizable=0;html=1;;align=center;verticalAlign=middle;" connectable="0" vertex="1" parent="ZsFsWTWNznt8_uSDE5Ch-12">
          <mxGeometry relative="1" as="geometry" />
        </mxCell>
        <mxCell id="ZsFsWTWNznt8_uSDE5Ch-14" value="&lt;span style=&quot;background-color: initial;&quot;&gt;rr:template&lt;br&gt;&lt;/span&gt;&lt;div&gt;&lt;span style=&quot;background-color: initial;&quot;&gt;&quot;{RICO_VERSION}/&lt;/span&gt;&lt;span style=&quot;background-color: initial;&quot;&gt;{&lt;/span&gt;SUC_1&lt;span style=&quot;background-color: initial;&quot;&gt;}/CorporateBody/1&quot;&lt;/span&gt;&lt;/div&gt;" style="swimlane;fontStyle=0;childLayout=stackLayout;horizontal=1;startSize=26;fillColor=none;horizontalStack=0;resizeParent=1;resizeParentMax=0;resizeLast=0;collapsible=1;marginBottom=0;whiteSpace=wrap;html=1;strokeColor=#000000;" vertex="1" parent="1">
          <mxGeometry x="620" y="290" width="270" height="52" as="geometry" />
        </mxCell>
        <mxCell id="ZsFsWTWNznt8_uSDE5Ch-15" value="rico:CorporateBody" style="text;strokeColor=none;fillColor=none;align=center;verticalAlign=top;spacingLeft=4;spacingRight=4;overflow=hidden;rotatable=0;points=[[0,0.5],[1,0.5]];portConstraint=eastwest;whiteSpace=wrap;html=1;" vertex="1" parent="ZsFsWTWNznt8_uSDE5Ch-14">
          <mxGeometry y="26" width="270" height="26" as="geometry" />
        </mxCell>
        <mxCell id="ZsFsWTWNznt8_uSDE5Ch-16" value="" style="endArrow=classic;html=1;rounded=0;exitX=0.25;exitY=0;exitDx=0;exitDy=0;entryX=0.463;entryY=1.026;entryDx=0;entryDy=0;entryPerimeter=0;" edge="1" parent="1" target="ZsFsWTWNznt8_uSDE5Ch-19" source="gmwnegnUR_CNORKRYM6Y-1">
          <mxGeometry relative="1" as="geometry">
            <mxPoint x="283" y="369" as="sourcePoint" />
            <mxPoint x="10" y="190" as="targetPoint" />
          </mxGeometry>
        </mxCell>
        <mxCell id="ZsFsWTWNznt8_uSDE5Ch-17" value="rico:hasOrHadAgentName" style="edgeLabel;resizable=0;html=1;;align=center;verticalAlign=middle;" connectable="0" vertex="1" parent="ZsFsWTWNznt8_uSDE5Ch-16">
          <mxGeometry relative="1" as="geometry" />
        </mxCell>
        <mxCell id="ZsFsWTWNznt8_uSDE5Ch-18" value="&lt;div&gt;&lt;span style=&quot;background-color: initial;&quot;&gt;rr:template&lt;br&gt;&quot;&lt;/span&gt;{RICO_VERSION}&lt;span style=&quot;background-color: initial;&quot;&gt;/&lt;/span&gt;{HEADING}/AgentName/3&quot;&lt;/div&gt;" style="swimlane;fontStyle=0;childLayout=stackLayout;horizontal=1;startSize=26;fillColor=none;horizontalStack=0;resizeParent=1;resizeParentMax=0;resizeLast=0;collapsible=1;marginBottom=0;whiteSpace=wrap;html=1;" vertex="1" parent="1">
          <mxGeometry x="-60" y="240" width="260" height="52" as="geometry">
            <mxRectangle x="981" y="570" width="50" height="40" as="alternateBounds" />
          </mxGeometry>
        </mxCell>
        <mxCell id="ZsFsWTWNznt8_uSDE5Ch-19" value="rico:AgentName&lt;div&gt;&lt;br&gt;&lt;/div&gt;" style="text;strokeColor=none;fillColor=none;align=center;verticalAlign=top;spacingLeft=4;spacingRight=4;overflow=hidden;rotatable=0;points=[[0,0.5],[1,0.5]];portConstraint=eastwest;whiteSpace=wrap;html=1;" vertex="1" parent="ZsFsWTWNznt8_uSDE5Ch-18">
          <mxGeometry y="26" width="260" height="26" as="geometry" />
        </mxCell>
        <mxCell id="ZsFsWTWNznt8_uSDE5Ch-20" value="" style="endArrow=classic;html=1;rounded=0;entryX=0.529;entryY=1.115;entryDx=0;entryDy=0;exitX=0.5;exitY=0;exitDx=0;exitDy=0;entryPerimeter=0;" edge="1" parent="1" source="ZsFsWTWNznt8_uSDE5Ch-18" target="ZsFsWTWNznt8_uSDE5Ch-23">
          <mxGeometry relative="1" as="geometry">
            <mxPoint x="-100" y="120" as="sourcePoint" />
            <mxPoint x="-220" y="169" as="targetPoint" />
          </mxGeometry>
        </mxCell>
        <mxCell id="ZsFsWTWNznt8_uSDE5Ch-21" value="rico:hasOrHadCategory" style="edgeLabel;resizable=0;html=1;;align=center;verticalAlign=middle;" connectable="0" vertex="1" parent="ZsFsWTWNznt8_uSDE5Ch-20">
          <mxGeometry relative="1" as="geometry" />
        </mxCell>
        <mxCell id="ZsFsWTWNznt8_uSDE5Ch-22" value="rr:constant&lt;br&gt;&quot;https://data.archives.gov.on.ca/Schema/Authority/Type/Parallel Name&quot;" style="swimlane;fontStyle=0;childLayout=stackLayout;horizontal=1;startSize=26;fillColor=none;horizontalStack=0;resizeParent=1;resizeParentMax=0;resizeLast=0;collapsible=1;marginBottom=0;whiteSpace=wrap;html=1;strokeColor=#FF0000;" vertex="1" parent="1">
          <mxGeometry x="20" y="120" width="420" height="52" as="geometry" />
        </mxCell>
        <mxCell id="ZsFsWTWNznt8_uSDE5Ch-23" value="rico:Type&lt;div&gt;&lt;br&gt;&lt;/div&gt;" style="text;strokeColor=none;fillColor=none;align=center;verticalAlign=top;spacingLeft=4;spacingRight=4;overflow=hidden;rotatable=0;points=[[0,0.5],[1,0.5]];portConstraint=eastwest;whiteSpace=wrap;html=1;" vertex="1" parent="ZsFsWTWNznt8_uSDE5Ch-22">
          <mxGeometry y="26" width="420" height="26" as="geometry" />
        </mxCell>
        <mxCell id="ZsFsWTWNznt8_uSDE5Ch-24" value="" style="endArrow=classic;html=1;rounded=0;entryX=0.654;entryY=0.996;entryDx=0;entryDy=0;entryPerimeter=0;exitX=0;exitY=0.25;exitDx=0;exitDy=0;" edge="1" parent="1" source="ZsFsWTWNznt8_uSDE5Ch-18" target="ZsFsWTWNznt8_uSDE5Ch-26">
          <mxGeometry relative="1" as="geometry">
            <mxPoint x="-255" y="109" as="sourcePoint" />
            <mxPoint x="-430" y="121" as="targetPoint" />
          </mxGeometry>
        </mxCell>
        <mxCell id="ZsFsWTWNznt8_uSDE5Ch-25" value="rico:textualValue" style="edgeLabel;resizable=0;html=1;;align=center;verticalAlign=middle;" connectable="0" vertex="1" parent="ZsFsWTWNznt8_uSDE5Ch-24">
          <mxGeometry relative="1" as="geometry" />
        </mxCell>
        <mxCell id="ZsFsWTWNznt8_uSDE5Ch-26" value="rml:reference &quot;PAR_1&quot;" style="html=1;whiteSpace=wrap;rounded=1;arcSize=50;strokeColor=#FF0000;" vertex="1" parent="1">
          <mxGeometry x="-160" y="140" width="80" height="50" as="geometry" />
        </mxCell>
        <mxCell id="ZsFsWTWNznt8_uSDE5Ch-27" value="&lt;div&gt;&lt;span style=&quot;background-color: initial;&quot;&gt;rr:template&lt;br&gt;&quot;&lt;/span&gt;&lt;span style=&quot;background-color: initial;&quot;&gt;Schema/Authority/&lt;/span&gt;&lt;span style=&quot;background-color: initial;&quot;&gt;CorporateBodyType&lt;/span&gt;&lt;span style=&quot;background-color: initial;&quot;&gt;/&lt;/span&gt;&lt;span style=&quot;background-color: initial;&quot;&gt;{AUTHTP_1}&quot;&lt;/span&gt;&lt;/div&gt;" style="swimlane;fontStyle=0;childLayout=stackLayout;horizontal=1;startSize=26;fillColor=none;horizontalStack=0;resizeParent=1;resizeParentMax=0;resizeLast=0;collapsible=1;marginBottom=0;whiteSpace=wrap;html=1;strokeColor=#FF0000;" vertex="1" parent="1">
          <mxGeometry x="452.5" y="188" width="310" height="52" as="geometry">
            <mxRectangle x="981" y="570" width="50" height="40" as="alternateBounds" />
          </mxGeometry>
        </mxCell>
        <mxCell id="ZsFsWTWNznt8_uSDE5Ch-28" value="rico:CorporateBodyType&lt;div&gt;&lt;br&gt;&lt;/div&gt;" style="text;strokeColor=none;fillColor=none;align=center;verticalAlign=top;spacingLeft=4;spacingRight=4;overflow=hidden;rotatable=0;points=[[0,0.5],[1,0.5]];portConstraint=eastwest;whiteSpace=wrap;html=1;" vertex="1" parent="ZsFsWTWNznt8_uSDE5Ch-27">
          <mxGeometry y="26" width="310" height="26" as="geometry" />
        </mxCell>
        <mxCell id="ZsFsWTWNznt8_uSDE5Ch-29" value="" style="endArrow=classic;html=1;rounded=0;entryX=-0.012;entryY=0.205;entryDx=0;entryDy=0;entryPerimeter=0;exitX=0.5;exitY=0;exitDx=0;exitDy=0;" edge="1" parent="1" target="ZsFsWTWNznt8_uSDE5Ch-28" source="gmwnegnUR_CNORKRYM6Y-1">
          <mxGeometry relative="1" as="geometry">
            <mxPoint x="340" y="292" as="sourcePoint" />
            <mxPoint x="561" y="309" as="targetPoint" />
          </mxGeometry>
        </mxCell>
        <mxCell id="ZsFsWTWNznt8_uSDE5Ch-30" value="rico:hasOrHadCorporateBodyType" style="edgeLabel;resizable=0;html=1;;align=center;verticalAlign=middle;" connectable="0" vertex="1" parent="ZsFsWTWNznt8_uSDE5Ch-29">
          <mxGeometry relative="1" as="geometry" />
        </mxCell>
        <mxCell id="ZsFsWTWNznt8_uSDE5Ch-31" value="" style="endArrow=classic;html=1;rounded=0;exitX=0.572;exitY=0.962;exitDx=0;exitDy=0;entryX=0.5;entryY=0;entryDx=0;entryDy=0;exitPerimeter=0;" edge="1" parent="1" target="ZsFsWTWNznt8_uSDE5Ch-33" source="ZsFsWTWNznt8_uSDE5Ch-4">
          <mxGeometry relative="1" as="geometry">
            <mxPoint x="160" y="600" as="sourcePoint" />
            <mxPoint x="90" y="600" as="targetPoint" />
          </mxGeometry>
        </mxCell>
        <mxCell id="ZsFsWTWNznt8_uSDE5Ch-32" value="rico:hasOrHadCategory" style="edgeLabel;resizable=0;html=1;;align=center;verticalAlign=middle;" connectable="0" vertex="1" parent="ZsFsWTWNznt8_uSDE5Ch-31">
          <mxGeometry relative="1" as="geometry" />
        </mxCell>
        <mxCell id="ZsFsWTWNznt8_uSDE5Ch-33" value="rr:constant&lt;br&gt;&quot;https://data.archives.gov.on.ca/Schema/Authority/Type/Variant Name&quot;" style="swimlane;fontStyle=0;childLayout=stackLayout;horizontal=1;startSize=26;fillColor=none;horizontalStack=0;resizeParent=1;resizeParentMax=0;resizeLast=0;collapsible=1;marginBottom=0;whiteSpace=wrap;html=1;strokeColor=#FF0000;" vertex="1" parent="1">
          <mxGeometry x="-360" y="524" width="420" height="52" as="geometry" />
        </mxCell>
        <mxCell id="ZsFsWTWNznt8_uSDE5Ch-34" value="rico:Type&lt;div&gt;&lt;br&gt;&lt;/div&gt;" style="text;strokeColor=none;fillColor=none;align=center;verticalAlign=top;spacingLeft=4;spacingRight=4;overflow=hidden;rotatable=0;points=[[0,0.5],[1,0.5]];portConstraint=eastwest;whiteSpace=wrap;html=1;" vertex="1" parent="ZsFsWTWNznt8_uSDE5Ch-33">
          <mxGeometry y="26" width="420" height="26" as="geometry" />
        </mxCell>
      </root>
    </mxGraphModel>
  </diagram>
</mxfile>
